<?xml version="1.0" standalone="no"?>
<!DOCTYPE svg PUBLIC "-//W3C//DTD SVG 20010904//EN"
 "http://www.w3.org/TR/2001/REC-SVG-20010904/DTD/svg10.dtd">
<svg version="1.0" xmlns="http://www.w3.org/2000/svg"
 width="225.000000pt" height="225.000000pt" viewBox="0 0 225.000000 225.000000"
 preserveAspectRatio="xMidYMid meet">
<metadata>
Created by potrace 1.16, written by Peter Selinger 2001-2019
</metadata>
<g transform="translate(0.000000,225.000000) scale(0.100000,-0.100000)"
fill="#000000" stroke="none">
<path d="M53 1824 c-54 -12 -53 7 -53 -726 l0 -678 140 0 140 0 0 145 0 145
845 0 845 0 0 -145 0 -145 140 0 140 0 0 251 c0 246 -4 281 -34 301 -6 4 -444
8 -973 8 l-963 0 0 399 c0 477 9 443 -121 447 -46 1 -94 0 -106 -2z"/>
<path d="M558 1606 c-209 -58 -275 -302 -128 -469 70 -81 218 -105 324 -53
171 84 207 300 76 450 -59 67 -178 99 -272 72z"/>
<path d="M1007 1522 c-15 -16 -17 -48 -17 -245 l0 -227 631 0 632 0 -6 83 c-7
96 -35 180 -80 239 -53 69 -130 125 -203 148 -62 19 -91 20 -504 20 -411 0
-438 -1 -453 -18z"/>
</g>
</svg>
